<svg viewBox="0 0 939 1042" fill="none" xmlns="http://www.w3.org/2000/svg">
<path d="M301.096 691.667C388.613 670.681 466.145 620 520.483 548.258C574.82 476.516 602.602 388.153 599.093 298.224C595.584 208.295 561.003 122.365 501.24 55.0753C441.478 -12.2147 360.232 -56.7011 271.347 -70.804C182.462 -84.907 91.4363 -67.7539 13.7804 -22.2673C-63.8756 23.2192 -123.357 94.2247 -154.53 178.651C-185.702 263.077 -186.637 355.7 -157.174 440.738C-127.712 525.776 -69.675 597.967 7.04729 645.011" stroke="#FAFAFA" stroke-width="20" stroke-linecap="round"/>
<path d="M499.317 244.622C483.321 177.917 444.652 118.83 389.899 77.4303C335.145 36.0305 267.694 14.8791 199.039 17.5799C130.384 20.2808 64.7729 46.6668 13.3845 92.2422C-38.0039 137.818 -71.9897 199.762 -82.7822 267.522C-93.5747 335.281 -80.506 404.663 -45.8031 463.846C-11.1001 523.028 43.09 568.349 107.534 592.087C171.978 615.824 242.689 616.51 307.617 594.026C372.546 571.543 427.676 527.282 463.613 468.784" stroke="#FAFAFA" stroke-width="20" stroke-linecap="round"/>
<path d="M5.98889 376.09C-2.26389 345.291 -2.78933 312.93 4.45913 281.874C11.7076 250.819 26.5062 222.028 47.5441 198.051C68.582 174.073 95.2098 155.651 125.069 144.414C154.928 133.178 187.097 129.475 218.726 133.633C250.354 137.791 280.467 149.681 306.396 168.251C332.326 186.822 353.271 211.498 367.377 240.095C381.483 268.692 388.315 300.327 387.267 332.198C386.219 364.068 377.323 395.191 361.368 422.808" stroke="#FAFAFA" stroke-width="20" stroke-linecap="round"/>
</svg>
