<svg viewBox="0 0 107 127" fill="none" xmlns="http://www.w3.org/2000/svg">
<g clip-path="url(#clip0_54820_316)">
<path d="M16.4301 70.0525C17.0878 68.7349 21.2557 66.7587 23.0105 66.0997C23.8879 65.6605 24.9848 65.0014 26.7396 66.7582C29.1522 68.9543 34.6361 78.3973 36.1713 81.6911C36.8291 83.2281 37.0487 84.5462 36.61 85.6439C35.7326 87.4007 23.8879 92.2319 21.0366 93.7694C19.7205 94.428 19.2818 94.8677 18.8431 93.5495C17.0883 88.499 18.6235 80.5934 17.0883 74.6639C16.6497 72.9071 15.9914 71.1503 16.4306 70.052L16.4301 70.0525Z" fill="#EC407A"/>
<path d="M19.5582 95.061C18.6528 95.061 18.3379 94.1138 18.2191 93.7569C17.278 91.0479 17.2509 87.6658 17.2229 84.085C17.1978 80.9016 17.1717 77.6094 16.4518 74.8286C16.367 74.4883 16.2753 74.154 16.185 73.8242C15.7729 72.3194 15.3839 70.8984 15.8201 69.8066C15.8271 69.7896 15.8341 69.773 15.8426 69.7565C16.7681 67.9033 22.2305 65.6987 22.7424 65.4964L22.8161 65.4593C23.2693 65.2304 23.8329 64.9453 24.5468 64.9453C25.4277 64.9453 26.2941 65.382 27.1945 66.2805C29.7359 68.607 35.2208 78.0917 36.7686 81.4116C37.5622 83.2653 37.7036 84.6818 37.2218 85.8874C37.2153 85.9045 37.2078 85.9211 37.1997 85.9376C36.5289 87.2808 31.9971 89.4267 25.6684 92.3113C23.7917 93.1666 22.1713 93.9055 21.3496 94.3487C21.1781 94.4351 21.0368 94.5088 20.9059 94.5771C20.3679 94.8582 19.9794 95.0615 19.5592 95.0615L19.5582 95.061ZM17.0308 70.3231C16.7782 71.0098 17.1211 72.2637 17.4535 73.4764C17.5463 73.8157 17.6405 74.16 17.7267 74.5038C18.4863 77.4367 18.5129 80.8113 18.5385 84.0749C18.566 87.5444 18.5916 90.8206 19.4645 93.3328C19.5367 93.5496 19.5933 93.6666 19.6289 93.7273C19.7808 93.6781 20.0626 93.5311 20.2962 93.4091C20.4331 93.3378 20.581 93.2605 20.7425 93.1797C21.5852 92.7249 23.2242 91.978 25.1224 91.1132C28.7282 89.4698 35.4199 86.4195 36.011 85.3699C36.3349 84.5247 36.1895 83.4058 35.5668 81.9507C33.9444 78.4712 28.5071 69.257 26.2971 67.2457C26.2895 67.2387 26.2815 67.2317 26.2745 67.2241C25.6292 66.5781 25.0637 66.2644 24.5463 66.2644C24.1457 66.2644 23.7877 66.4456 23.4087 66.6369L23.3054 66.6891C23.2849 66.6996 23.2638 66.7086 23.2423 66.7167C21.0989 67.5213 17.5558 69.3594 17.0319 70.3237L17.0308 70.3231Z" fill="#4A4A48"/>
<path d="M27.8365 80.5929C28.9334 80.3731 29.8108 81.0321 30.0299 82.1299C30.0299 83.0083 29.3721 83.8867 28.2752 84.1065C27.3978 84.1065 26.5204 83.448 26.3008 82.5696C26.3008 81.4713 26.9586 80.5929 27.836 80.5929H27.8365Z" fill="#C2D8ED"/>
<path d="M28.2747 84.766C27.075 84.766 25.9519 83.8906 25.6621 82.7296C25.6491 82.6774 25.6426 82.6237 25.6426 82.5699C25.6426 81.1193 26.5711 79.9774 27.7684 79.9357C27.9298 79.9071 28.0912 79.8926 28.2492 79.8926C29.4479 79.8926 30.4226 80.7399 30.6748 82.0012C30.6833 82.0439 30.6873 82.0871 30.6873 82.1302C30.6873 83.3846 29.7267 84.4879 28.4036 84.7524C28.361 84.7609 28.3179 84.7655 28.2747 84.7655V84.766ZM26.9607 82.4851C27.1286 83.0026 27.6656 83.4167 28.2121 83.4468C28.9436 83.2722 29.3396 82.7025 29.3697 82.193C29.1998 81.4752 28.6553 81.1018 27.9654 81.2393C27.9228 81.2478 27.8797 81.2523 27.8365 81.2523C27.3718 81.2523 26.9902 81.798 26.9612 82.4851H26.9607Z" fill="#4A4A48"/>
<path d="M73.4602 28.3281C80.2597 28.3281 85.7436 33.8184 85.7436 40.6258C85.7436 47.4331 80.2597 52.9234 73.4602 52.9234C66.6607 52.9234 61.1768 47.4331 61.1768 40.6258C61.1768 33.8184 66.6607 28.3281 73.4602 28.3281Z" fill="#4CAF50"/>
<path d="M73.4603 53.5823C66.3244 53.5823 60.5186 47.7703 60.5186 40.6261C60.5186 33.4819 66.3244 27.6699 73.4603 27.6699C80.5962 27.6699 86.402 33.4819 86.402 40.6261C86.402 47.7703 80.5967 53.5823 73.4603 53.5823ZM73.4603 28.987C67.0498 28.987 61.8346 34.2083 61.8346 40.6261C61.8346 47.044 67.0498 52.2652 73.4603 52.2652C79.8707 52.2652 85.0859 47.044 85.0859 40.6261C85.0859 34.2083 79.8707 28.987 73.4603 28.987Z" fill="#4A4A48"/>
<path d="M44.0681 14.7129C50.8676 14.7129 56.3515 20.2027 56.3515 27.0105C56.3515 33.8184 50.8681 39.3082 44.0681 39.3082C37.2681 39.3082 31.7847 33.8179 31.7847 27.0105C31.7847 20.2032 37.2686 14.7129 44.0681 14.7129Z" fill="#FFD54F"/>
<g clip-path="url(#clip1_54820_316)">
<path d="M49.0051 22.6055H48.4448C48.3033 22.6055 48.1886 22.723 48.1886 22.8678V28.4946C48.1886 28.9893 48.1046 29.3693 47.9364 29.6349C47.7682 29.9005 47.4498 30.0333 46.9809 30.0333H44.0901C43.9486 30.0333 43.8338 29.9158 43.8338 29.7709V25.8984C43.8338 25.7535 43.7191 25.636 43.5777 25.636H43.0174C42.8759 25.636 42.7612 25.7536 42.7612 25.8984V30.591C42.7612 30.7359 42.876 30.8533 43.0174 30.8533H47.2793C47.8713 30.8533 48.3508 30.6281 48.7178 30.1777C49.0849 29.7274 49.266 29.1845 49.2613 28.5493V22.8678C49.2613 22.7229 49.1465 22.6055 49.005 22.6055H49.0051Z" fill="#4A4A48"/>
<path d="M45.2512 23.7848C45.4335 24.0296 45.5246 24.4253 45.5246 24.972V27.5683C45.5246 27.7132 45.6394 27.8306 45.7808 27.8306H46.3411C46.4826 27.8306 46.5972 27.7131 46.5972 27.5683V24.9174C46.5972 24.1988 46.4634 23.6339 46.1958 23.2225C45.9284 22.8111 45.4015 22.6055 44.6153 22.6055H40.3533C40.2119 22.6055 40.0972 22.723 40.0972 22.8678V30.5909C40.0972 30.7358 40.2119 30.8532 40.3533 30.8532H40.9136C41.0551 30.8532 41.1698 30.7357 41.1698 30.5909V23.6802C41.1698 23.5352 41.2845 23.4178 41.4259 23.4178H44.3168C44.7572 23.4178 45.0686 23.5402 45.251 23.7849L45.2512 23.7848Z" fill="#4A4A48"/>
</g>
<g clip-path="url(#clip2_54820_316)">
<path d="M78.3308 36.3516H77.7705C77.629 36.3516 77.5143 36.4691 77.5143 36.6139V42.2407C77.5143 42.7354 77.4302 43.1154 77.2621 43.381C77.0939 43.6465 76.7755 43.7794 76.3066 43.7794H73.4157C73.2742 43.7794 73.1595 43.6618 73.1595 43.517V39.6445C73.1595 39.4996 73.0448 39.3821 72.9034 39.3821H72.3431C72.2016 39.3821 72.0869 39.4997 72.0869 39.6445V44.3371C72.0869 44.482 72.2017 44.5994 72.3431 44.5994H76.605C77.197 44.5994 77.6765 44.3742 78.0435 43.9238C78.4105 43.4735 78.5917 42.9306 78.587 42.2954V36.6139C78.587 36.469 78.4722 36.3516 78.3307 36.3516H78.3308Z" fill="#4A4A48"/>
<path d="M74.5768 37.5309C74.7592 37.7757 74.8503 38.1714 74.8503 38.7181V41.3144C74.8503 41.4593 74.965 41.5767 75.1064 41.5767H75.6668C75.8082 41.5767 75.9229 41.4592 75.9229 41.3144V38.6635C75.9229 37.9449 75.7891 37.38 75.5215 36.9686C75.2541 36.5572 74.7271 36.3516 73.941 36.3516H69.679C69.5376 36.3516 69.4229 36.4691 69.4229 36.6139V44.337C69.4229 44.4819 69.5376 44.5993 69.679 44.5993H70.2393C70.3808 44.5993 70.4954 44.4818 70.4954 44.337V37.4263C70.4954 37.2813 70.6102 37.1639 70.7516 37.1639H73.6425C74.0829 37.1639 74.3943 37.2863 74.5767 37.531L74.5768 37.5309Z" fill="#4A4A48"/>
</g>
<path d="M44.0677 39.9671C36.9318 39.9671 31.1265 34.1551 31.1265 27.0109C31.1265 19.8667 36.9318 14.0547 44.0677 14.0547C51.2036 14.0547 57.0089 19.8667 57.0089 27.0109C57.0089 34.1551 51.2036 39.9671 44.0677 39.9671ZM44.0677 15.3718C37.6572 15.3718 32.4425 20.593 32.4425 27.0104C32.4425 33.4277 37.6577 38.6495 44.0677 38.6495C50.4776 38.6495 55.6928 33.4282 55.6928 27.0104C55.6928 20.5925 50.4776 15.3718 44.0677 15.3718Z" fill="#4A4A48"/>
<path d="M44.6792 60.1789C41.0135 60.1789 31.5438 64.761 27.2671 67.0521C28.3668 67.0521 34.1403 77.4384 36.8896 82.6316C39.0279 81.8679 43.8544 80.2489 46.0539 79.8823C48.8032 79.4241 58.8839 83.548 65.2989 82.6316C71.7139 81.7151 77.2124 77.5909 79.5035 74.8416C81.4713 72.4803 88.6677 61.5536 87.2931 60.1788C85.0023 57.8877 79.1662 66.6311 77.6706 68.4261C75.3796 71.176 69.4228 73.0083 66.6735 73.0083C63.9242 73.0083 62.5496 73.0081 57.5092 71.1754C57.5092 71.1754 52.0107 68.4261 58.4257 68.8844C64.8406 69.3426 70.8071 68.2615 71.7139 67.0521C73.0885 65.2186 66.2153 64.3022 62.5496 64.3022C58.3251 64.3022 49.2614 60.1789 44.6792 60.1789Z" fill="white" stroke="#4A4A48"/>
<path d="M73.4605 29.2066C73.097 29.2066 72.8027 28.912 72.8027 28.5481V19.764C72.8027 19.4001 73.097 19.1055 73.4605 19.1055C73.824 19.1055 74.1183 19.4001 74.1183 19.764V28.5481C74.1183 28.912 73.824 29.2066 73.4605 29.2066Z" fill="#4A4A48"/>
<path d="M76.9698 29.6458C76.6063 29.6458 76.312 29.3512 76.312 28.9873V19.764C76.312 19.4001 76.6063 19.1055 76.9698 19.1055C77.3333 19.1055 77.6276 19.4001 77.6276 19.764V28.9873C77.6276 29.3512 77.3333 29.6458 76.9698 29.6458Z" fill="#4A4A48"/>
<path d="M69.7315 29.6458C69.368 29.6458 69.0737 29.3512 69.0737 28.9873V19.764C69.0737 19.4001 69.368 19.1055 69.7315 19.1055C70.095 19.1055 70.3893 19.4001 70.3893 19.764V28.9873C70.3893 29.3512 70.095 29.6458 69.7315 29.6458Z" fill="#4A4A48"/>
<path d="M73.4605 17.5684C73.097 17.5684 72.8027 17.2738 72.8027 16.9098V14.4945C72.8027 14.1306 73.097 13.8359 73.4605 13.8359C73.824 13.8359 74.1183 14.1306 74.1183 14.4945V16.9098C74.1183 17.2738 73.824 17.5684 73.4605 17.5684Z" fill="#4A4A48"/>
<path d="M76.9698 17.5675C76.6063 17.5675 76.312 17.2729 76.312 16.909V14.2738C76.312 13.9099 76.6063 13.6152 76.9698 13.6152C77.3333 13.6152 77.6276 13.9099 77.6276 14.2738V16.909C77.6276 17.2729 77.3333 17.5675 76.9698 17.5675Z" fill="#4A4A48"/>
<path d="M69.7315 17.5675C69.368 17.5675 69.0737 17.2729 69.0737 16.909V14.2738C69.0737 13.9099 69.368 13.6152 69.7315 13.6152C70.095 13.6152 70.3893 13.9099 70.3893 14.2738V16.909C70.3893 17.2729 70.095 17.5675 69.7315 17.5675Z" fill="#4A4A48"/>
<path d="M76.0925 95.9655H5.24324C4.87975 95.9655 4.58545 95.6709 4.58545 95.307C4.58545 94.9431 4.88025 94.6484 5.24324 94.6484H76.0925C76.456 94.6484 76.7503 94.9436 76.7503 95.307C76.7503 95.6704 76.456 95.9655 76.0925 95.9655Z" fill="#4A4A48"/>
<path d="M44.0679 15.5914C43.7045 15.5914 43.4102 15.2967 43.4102 14.9328V6.14879C43.4102 5.78488 43.7045 5.49023 44.0679 5.49023C44.4314 5.49023 44.7257 5.78488 44.7257 6.14879V14.9328C44.7257 15.2967 44.4314 15.5914 44.0679 15.5914Z" fill="#4A4A48"/>
<path d="M47.5772 16.0306C47.2137 16.0306 46.9194 15.7359 46.9194 15.372V6.14879C46.9194 5.78488 47.2137 5.49023 47.5772 5.49023C47.9407 5.49023 48.235 5.78488 48.235 6.14879V15.372C48.235 15.7359 47.9407 16.0306 47.5772 16.0306Z" fill="#4A4A48"/>
<path d="M40.5582 16.0306C40.1947 16.0306 39.9004 15.7359 39.9004 15.372V6.14879C39.9004 5.78488 40.1947 5.49023 40.5582 5.49023C40.9217 5.49023 41.216 5.78488 41.216 6.14879V15.372C41.216 15.7359 40.9217 16.0306 40.5582 16.0306Z" fill="#4A4A48"/>
<path d="M44.0679 3.95367C43.7045 3.95367 43.4102 3.65902 43.4102 3.29511V0.879255C43.4102 0.515345 43.7045 0.220703 44.0679 0.220703C44.4314 0.220703 44.7257 0.515345 44.7257 0.879255V3.29461C44.7257 3.65852 44.4314 3.95316 44.0679 3.95316V3.95367Z" fill="#4A4A48"/>
<path d="M47.5772 3.95281C47.2137 3.95281 46.9194 3.65817 46.9194 3.29426V0.658551C46.9194 0.294642 47.2137 0 47.5772 0C47.9407 0 48.235 0.294642 48.235 0.658551V3.29376C48.235 3.65767 47.9407 3.95231 47.5772 3.95231V3.95281Z" fill="#4A4A48"/>
<path d="M40.5582 3.95281C40.1947 3.95281 39.9004 3.65817 39.9004 3.29426V0.658551C39.9004 0.294642 40.1947 0 40.5582 0C40.9217 0 41.216 0.294642 41.216 0.658551V3.29376C41.216 3.65767 40.9217 3.95231 40.5582 3.95231V3.95281Z" fill="#4A4A48"/>
<path d="M80.0407 99.2605H29.5909C29.2274 99.2605 28.9331 98.9658 28.9331 98.6019C28.9331 98.238 29.2279 97.9434 29.5909 97.9434H80.0407C80.4042 97.9434 80.6985 98.2385 80.6985 98.6019C80.6985 98.9653 80.4042 99.2605 80.0407 99.2605Z" fill="#4A4A48"/>
<path d="M93.8599 102.335H58.9835C58.62 102.335 58.3257 102.04 58.3257 101.676C58.3257 101.312 58.62 101.018 58.9835 101.018H93.8599C94.2234 101.018 94.5177 101.313 94.5177 101.676C94.5177 102.04 94.2229 102.335 93.8599 102.335Z" fill="#4A4A48"/>
<path d="M101.756 102.335H97.5889C97.2255 102.335 96.9312 102.04 96.9312 101.676C96.9312 101.312 97.2255 101.018 97.5889 101.018H101.756C102.12 101.018 102.414 101.313 102.414 101.676C102.414 102.04 102.119 102.335 101.756 102.335Z" fill="#4A4A48"/>
<path d="M44.068 102.335H27.6173C27.2538 102.335 26.9595 102.04 26.9595 101.676C26.9595 101.312 27.2543 101.018 27.6173 101.018H44.068C44.4315 101.018 44.7258 101.313 44.7258 101.676C44.7258 102.04 44.4315 102.335 44.068 102.335Z" fill="#4A4A48"/>
</g>
<defs>
<clipPath id="clip0_54820_316">
<rect width="97.8287" height="102.334" fill="white" transform="translate(4.58545)"/>
</clipPath>
<clipPath id="clip1_54820_316">
<rect width="9.16428" height="8.24785" fill="white" transform="translate(40.0972 22.6055)"/>
</clipPath>
<clipPath id="clip2_54820_316">
<rect width="9.16428" height="8.24785" fill="white" transform="translate(69.4229 36.3516)"/>
</clipPath>
</defs>
</svg>
