<svg viewBox="0 0 107 127" fill="none" xmlns="http://www.w3.org/2000/svg">
<path d="M53.489 3.76908C53.0803 3.76894 52.6918 3.92023 52.4061 4.19943C51.6669 4.91679 34.3254 22.0872 34.3345 43.7065C34.3355 46.0655 34.4446 48.2966 34.6654 50.299C34.6838 50.5362 34.705 50.771 34.7289 51.0082L22.8449 61.5268C22.5408 61.7892 22.3907 62.1425 22.3909 62.5126L22.3989 81.4971C22.3991 82.0002 22.7008 82.4638 23.181 82.7013C23.6631 82.9387 24.2459 82.917 24.7058 82.6379L40.359 73.1899C40.9249 74.4058 41.5155 75.5434 42.117 76.5767C42.3756 77.0244 42.8815 77.3005 43.4295 77.3007L63.651 77.3079C64.0541 77.308 64.427 77.1593 64.7036 76.9053C64.8117 76.8061 64.9051 76.6934 64.9775 76.5664C65.5818 75.4763 66.1439 74.3576 66.6612 73.2195L82.2922 82.6626C82.7495 82.9395 83.3323 82.9616 83.8142 82.7246C83.9434 82.6615 84.0606 82.5808 84.1632 82.4866C84.4371 82.2352 84.5992 81.8878 84.5962 81.5201L84.5882 62.5356C84.5908 62.1629 84.4257 61.8062 84.1333 61.5495L72.2432 51.0199C72.2614 50.7995 72.2824 50.5749 72.3007 50.3545C72.5197 48.3136 72.6324 46.0825 72.6314 43.7185C72.6204 22.1008 55.3102 4.92145 54.5722 4.20021C54.2927 3.92669 53.8976 3.76923 53.489 3.76908ZM39.2345 70.595L25.3759 78.9642L25.3692 63.0942L35.1115 54.4644C35.857 59.9692 37.2164 65.3631 39.107 70.2744C39.1492 70.3855 39.1941 70.4873 39.2327 70.595L39.2345 70.595ZM62.7298 74.5751L44.3318 74.5685C43.7624 73.5327 43.2093 72.3942 42.6764 71.1767L64.3439 71.1878C63.8541 72.3393 63.3167 73.474 62.7307 74.5759L62.7298 74.5751ZM81.6171 78.9834L67.7514 70.6043C67.7935 70.5 67.8384 70.3915 67.8777 70.2847C69.7652 65.4849 71.1218 60.0835 71.8662 54.4834L81.6104 63.1151L81.6171 78.9851L81.6171 78.9834ZM69.6542 43.7166C69.6561 45.9923 69.548 48.13 69.3326 50.1187C68.8332 56.5998 67.4879 62.9081 65.4212 68.4531L41.573 68.4446C39.4914 62.7627 38.1326 56.4458 37.6332 50.0687C37.4217 48.1185 37.3126 45.9749 37.3117 43.7051C37.3061 26.2366 49.7023 11.3528 53.4913 7.21583C57.2738 11.3513 69.6441 26.2254 69.6542 43.7166Z" fill="#4A4A48"/>
<path d="M81.6103 63.1142L81.617 78.9843L67.7513 70.6051C67.7934 70.5008 67.8383 70.3923 67.8776 70.2855C69.7651 65.4858 71.1217 60.0844 71.8661 54.4842L81.6103 63.1159L81.6103 63.1142Z" fill="white"/>
<path d="M37.3096 43.7044C37.3105 45.9742 37.4196 48.1179 37.6312 50.068C38.1305 56.4452 39.4893 62.762 41.5709 68.444L65.4191 68.4525C67.4859 62.9075 68.832 56.6 69.3305 50.118C69.5459 48.1293 69.6541 45.9916 69.6522 43.716C69.642 26.2248 57.2727 11.3515 53.4893 7.21518C49.7011 11.3513 37.304 26.236 37.3087 43.7036L37.3096 43.7044Z" fill="#FFE082"/>
<path d="M64.3437 71.1856C63.8539 72.3371 63.3165 73.4718 62.7306 74.5737L44.3326 74.5672C43.7631 73.5313 43.2101 72.3929 42.6772 71.1753L64.3446 71.1864L64.3437 71.1856Z" fill="#4CAF50"/>
<path d="M35.1136 54.4636C35.8591 59.9684 37.2184 65.3624 39.1091 70.2737C39.1512 70.3848 39.1962 70.4866 39.2347 70.5943L25.3761 78.9635L25.3694 63.0935L35.1118 54.4636L35.1136 54.4636Z" fill="white"/>
<path d="M62.5244 78.3091L44.4719 78.3002C43.8708 78.3 43.3285 78.6312 43.0941 79.1393L38.8142 88.5223C38.6247 88.9454 38.6735 89.4309 38.9532 89.8087C39.231 90.1899 39.6966 90.4189 40.1996 90.4165L53.489 90.3498L66.8033 90.4269C67.2037 90.4295 67.5848 90.2833 67.8651 90.026C67.9311 89.9654 67.9943 89.8956 68.0483 89.8191C68.3285 89.4406 68.376 88.9543 68.1861 88.5328L63.8983 79.1467C63.6635 78.6385 63.1209 78.3068 62.5226 78.3091L62.5244 78.3091ZM64.5672 87.6776L53.4879 87.6156L42.4325 87.6697L45.459 81.0347L61.535 81.0404L64.5663 87.6784L64.5672 87.6776Z" fill="#4A4A48"/>
<path d="M61.5357 81.0411L64.5669 87.6791L53.4886 87.6162L42.434 87.6712L45.4597 81.0353L61.5357 81.0411Z" fill="#4CAF50"/>
<path d="M60.4911 95.4864C58.8978 93.7443 56.7358 92.7635 54.4221 92.7635C50.8007 92.7622 47.6441 95.1806 46.4535 98.7531C43.2393 99.4536 40.8627 102.47 40.8643 106.081C40.8649 107.493 41.2301 108.856 41.9197 110.024C42.3122 110.687 43.2158 110.935 43.9395 110.575C44.6623 110.216 44.9305 109.386 44.538 108.721C44.0832 107.952 43.8427 107.038 43.8423 106.081C43.8421 103.519 45.5475 101.435 47.7255 101.335C48.4045 101.305 48.9734 100.856 49.1096 100.247C49.7352 97.4486 51.9226 95.4959 54.425 95.496C56.0634 95.4966 57.6133 96.3409 58.6769 97.8135C59.0537 98.3361 59.7694 98.556 60.4135 98.3484C61.0869 98.1307 61.7659 98.0191 62.4302 98.0202C66.3163 98.0224 69.4792 101.643 69.4811 106.091C69.4815 107.089 69.3225 108.057 69.0067 108.968C68.7578 109.688 69.1915 110.456 69.976 110.685C70.5259 110.845 71.1003 110.698 71.4805 110.349C71.6435 110.199 71.7699 110.013 71.8449 109.797C72.2531 108.618 72.4588 107.372 72.4582 106.093C72.4557 100.137 67.9563 95.2896 62.4291 95.2877C61.784 95.2874 61.1371 95.3545 60.4929 95.488L60.4911 95.4864Z" fill="#4A4A48"/>
<path d="M49.7458 29.2213C50.8227 28.2326 52.2916 27.6411 53.921 27.6336C57.189 27.636 59.8431 30.0732 59.8449 33.0737C59.8371 36.0677 57.1828 38.5029 53.9339 38.5019C50.6653 38.5008 48.0098 36.0638 48.0071 33.0631C48.0154 31.5683 48.6682 30.2107 49.7458 29.2213Z" fill="#EC407A" stroke="#4A4A48"/>
<path d="M49.7386 51.7435C50.7393 50.8248 52.1045 50.2247 53.6167 50.1538L53.921 50.1465C57.1819 50.1565 59.8362 52.596 59.8377 55.5788C59.839 58.5802 57.1858 61.0161 53.9167 61.0149C50.6675 61.0137 48.0106 58.5769 47.9999 55.5827C47.9994 54.0838 48.6714 52.7234 49.7386 51.7435Z" fill="#EC407A" stroke="#4A4A48"/>
</svg>
