<svg viewBox="0 0 231 155" fill="none" xmlns="http://www.w3.org/2000/svg"
style="
        --p-icon-color-1: var(--icon-color-1, white);
        --p-icon-color-2: var(--icon-color-2, #73BD80);
        --p-icon-color-3: var(--icon-color-3, #83BCD9);
        --p-icon-color-4: var(--icon-color-4, #014A15);
    ">
<g clip-path="url(#clip0_54820_1087)">
<path d="M120.855 55.2246C121.019 55.2519 121.183 55.2792 121.35 55.3065C121.506 55.3333 121.665 55.3603 121.824 55.3876C121.959 55.4079 122.095 55.4287 122.233 55.45C124.148 55.7543 126.077 56.2349 127.909 56.8753C128.581 57.1372 129.246 57.4139 129.912 57.6936C130.105 57.7688 130.298 57.8439 130.496 57.9213C132.575 58.7805 134.499 59.9015 136.358 61.1617C136.92 61.5507 137.463 61.9569 137.999 62.3802C138.103 62.459 138.206 62.5371 138.313 62.6182C139.376 63.4291 140.327 64.3284 141.264 65.2814C141.494 65.512 141.725 65.7418 141.956 65.9702C142.576 66.5854 143.177 67.1932 143.712 67.885C143.867 68.074 144.022 68.2622 144.18 68.4571C145.368 69.9263 146.389 71.4661 147.348 73.0923C147.469 73.2902 147.59 73.488 147.714 73.6919C148.911 75.7406 149.791 77.9864 150.538 80.2337C151.259 82.5524 151.815 84.9537 152.041 87.3751L152.096 88.0446L152.171 88.4165C152.243 91.0693 152.298 93.7503 151.874 96.3762C151.845 96.5704 151.817 96.7645 151.787 96.9646C151.604 98.1489 151.36 99.3087 151.058 100.468C151.014 100.637 150.971 100.805 150.926 100.979C150.236 103.577 149.313 106.077 148.118 108.484C147.194 110.306 146.14 112.012 144.899 113.635C144.75 113.838 144.6 114.042 144.45 114.245C144.046 114.777 143.628 115.287 143.193 115.793C143.042 115.972 142.89 116.152 142.734 116.336C142.403 116.718 142.068 117.075 141.709 117.429C141.535 117.627 141.363 117.826 141.19 118.024C140.825 118.39 140.463 118.727 140.077 119.066L139.557 119.587C139.287 119.813 139.015 120.035 138.741 120.256C138.556 120.409 138.369 120.564 138.18 120.721C136.524 122.067 134.735 123.224 132.88 124.273C132.769 124.336 132.659 124.4 132.545 124.464C130.741 125.458 128.783 126.242 126.819 126.86C124.979 127.412 123.13 127.846 121.231 128.141C121.085 128.164 120.939 128.187 120.787 128.211C119.157 128.451 117.524 128.452 115.879 128.452C115.693 128.453 115.507 128.454 115.314 128.455C114.305 128.456 113.328 128.42 112.327 128.29C112.115 128.263 111.903 128.236 111.684 128.208C110.428 128.03 109.185 127.838 107.95 127.546C107.798 127.511 107.645 127.475 107.49 127.438C105.322 126.903 103.229 126.166 101.198 125.24C100.978 125.14 100.757 125.041 100.53 124.938C98.23 123.803 96.0835 122.401 94.055 120.832C93.3828 120.3 92.7455 119.752 92.1459 119.141C92.0554 119.062 91.9649 118.983 91.8714 118.902C91.5405 118.61 91.2281 118.306 90.9165 117.992C90.8112 117.887 90.7051 117.781 90.596 117.672C90.0647 117.122 89.584 116.536 89.1032 115.942C88.9503 115.757 88.7957 115.569 88.6394 115.38C87.0257 113.385 85.7139 111.188 84.5505 108.904C83.399 106.566 82.496 104.143 81.8527 101.615C81.1523 98.6525 80.7079 95.6732 80.6159 92.6277C80.5877 90.0665 80.8466 87.5142 81.3126 84.9969C81.9002 82.1024 82.7594 79.3775 83.9087 76.6622C84.7775 74.7199 85.8304 72.8029 87.0539 71.0629C87.1919 70.874 87.3291 70.6858 87.4708 70.4909C87.5903 70.319 87.7098 70.1472 87.8329 69.9702C88.1994 69.468 88.5823 68.989 88.98 68.5114C89.256 68.1803 89.5276 67.8456 89.7991 67.5108C90.1426 67.0928 90.4951 66.7015 90.8839 66.3251C90.962 66.2338 91.0409 66.1418 91.1206 66.0491C91.4099 65.7225 91.7141 65.4272 92.0339 65.1304C92.4249 64.7659 92.8063 64.3984 93.1839 64.019C93.4533 63.7928 93.7256 63.5697 94.0001 63.3495C94.176 63.2066 94.3518 63.0638 94.5336 62.9173C96.6393 61.245 98.8659 59.7899 101.271 58.5885C103.445 57.5248 105.693 56.7087 108.023 56.0593C108.393 55.9827 108.764 55.9083 109.136 55.8361C109.331 55.7863 109.526 55.7364 109.726 55.6859C113.189 54.8326 117.318 54.6392 120.854 55.2276L120.855 55.2246Z" fill="#FFD54F"/>
<path d="M120.855 55.2246C121.019 55.2519 121.183 55.2792 121.35 55.3065C121.506 55.3333 121.665 55.3603 121.824 55.3876C121.959 55.4079 122.095 55.4287 122.233 55.45C124.148 55.7543 126.077 56.2349 127.909 56.8753C128.581 57.1372 129.246 57.4139 129.912 57.6936C130.105 57.7688 130.298 57.8439 130.496 57.9213C132.575 58.7805 134.499 59.9015 136.358 61.1617C136.92 61.5507 137.463 61.9569 137.999 62.3802C138.103 62.459 138.206 62.5371 138.313 62.6182C139.376 63.4291 140.327 64.3284 141.264 65.2814C141.494 65.512 141.725 65.7418 141.956 65.9702C142.576 66.5854 143.177 67.1932 143.712 67.885C143.867 68.074 144.022 68.2622 144.18 68.4571C145.368 69.9263 146.389 71.4661 147.348 73.0923C147.469 73.2902 147.59 73.488 147.714 73.6919C148.911 75.7406 149.791 77.9864 150.538 80.2337C151.259 82.5524 151.815 84.9537 152.041 87.3751L152.096 88.0446L152.171 88.4165C152.243 91.0693 152.298 93.7503 151.874 96.3762C151.845 96.5704 151.817 96.7645 151.787 96.9646C151.604 98.1489 151.36 99.3087 151.058 100.468C151.014 100.637 150.971 100.805 150.926 100.979C150.236 103.577 149.313 106.077 148.118 108.484C147.194 110.306 146.14 112.012 144.899 113.635C144.75 113.838 144.6 114.042 144.45 114.245C144.046 114.777 143.628 115.287 143.193 115.793C143.042 115.972 142.89 116.152 142.734 116.336C142.403 116.718 142.068 117.075 141.709 117.429C141.535 117.627 141.363 117.826 141.19 118.024C140.825 118.39 140.463 118.727 140.077 119.066L139.557 119.587C139.287 119.813 139.015 120.035 138.741 120.256C138.556 120.409 138.369 120.564 138.18 120.721C136.524 122.067 134.735 123.224 132.88 124.273C132.769 124.336 132.659 124.4 132.545 124.464C130.741 125.458 128.783 126.242 126.819 126.86C124.979 127.412 123.13 127.846 121.231 128.141C121.085 128.164 120.939 128.187 120.787 128.211C119.157 128.451 117.524 128.452 115.879 128.452C115.693 128.453 115.507 128.454 115.314 128.455C114.305 128.456 113.328 128.42 112.327 128.29C112.115 128.263 111.903 128.236 111.684 128.208C110.428 128.03 109.185 127.838 107.95 127.546C107.798 127.511 107.645 127.475 107.49 127.438C105.322 126.903 103.229 126.166 101.198 125.24C100.978 125.14 100.757 125.041 100.53 124.938C98.23 123.803 96.0835 122.401 94.055 120.832C93.3828 120.3 92.7455 119.752 92.1459 119.141C92.0554 119.062 91.9649 118.983 91.8714 118.902C91.5405 118.61 91.2281 118.306 90.9165 117.992C90.8112 117.887 90.7051 117.781 90.596 117.672C90.0647 117.122 89.584 116.536 89.1032 115.942C88.9503 115.757 88.7957 115.569 88.6394 115.38C87.0257 113.385 85.7139 111.188 84.5505 108.904C83.399 106.566 82.496 104.143 81.8527 101.615C81.1523 98.6525 80.7079 95.6732 80.6159 92.6277C80.5877 90.0665 80.8466 87.5142 81.3126 84.9969C81.9002 82.1024 82.7594 79.3775 83.9087 76.6622C84.7775 74.7199 85.8304 72.8029 87.0539 71.0629C87.1919 70.874 87.3291 70.6858 87.4708 70.4909C87.5903 70.319 87.7098 70.1472 87.8329 69.9702C88.1994 69.468 88.5823 68.989 88.98 68.5114C89.256 68.1803 89.5276 67.8456 89.7991 67.5108C90.1426 67.0928 90.4951 66.7015 90.8839 66.3251C90.962 66.2338 91.0409 66.1418 91.1206 66.0491C91.4099 65.7225 91.7141 65.4272 92.0339 65.1304C92.4249 64.7659 92.8063 64.3984 93.1839 64.019C93.4533 63.7928 93.7256 63.5697 94.0001 63.3495C94.176 63.2066 94.3518 63.0638 94.5336 62.9173C96.6393 61.245 98.8659 59.7899 101.271 58.5885C103.445 57.5248 105.693 56.7087 108.023 56.0593C108.393 55.9827 108.764 55.9083 109.136 55.8361C109.331 55.7863 109.526 55.7364 109.726 55.6859C113.189 54.8326 117.318 54.6392 120.854 55.2276L120.855 55.2246ZM111.882 57.6185C111.709 57.646 111.536 57.6743 111.359 57.7026C109.121 58.0909 106.945 58.7046 104.829 59.5348C102.611 60.4609 100.522 61.5559 98.5268 62.8994C98.4207 62.9708 98.3139 63.0422 98.2048 63.1159C96.1436 64.5174 94.2546 66.1718 92.5169 67.9579C92.3418 68.1543 92.1689 68.3529 91.9976 68.553C91.8907 68.6713 91.7831 68.7896 91.6726 68.9108C91.3231 69.3036 90.99 69.7046 90.662 70.1152C90.5841 70.2127 90.5062 70.3094 90.4253 70.4098C88.8828 72.3603 87.5962 74.5027 86.4751 76.7203C85.423 78.8924 84.6098 81.1829 83.9888 83.5143C83.4954 85.5124 83.1497 87.5492 83.0198 89.6053C82.999 90.4109 82.999 91.2166 83.0013 92.0229C83.0013 92.2327 82.9998 92.4418 82.9998 92.6582C83.002 95.2091 83.3144 97.7204 83.8456 100.215C84.3368 102.288 85.0224 104.303 85.84 106.269C85.9276 106.48 86.0144 106.69 86.1041 106.906C86.4128 107.576 86.7489 108.225 87.1013 108.873C87.1666 108.994 87.2327 109.115 87.3002 109.24C88.4577 111.324 89.8525 113.243 91.4047 115.047C92.3856 116.124 93.3754 117.195 94.521 118.097C94.6708 118.227 94.8207 118.358 94.975 118.492C95.4492 118.886 95.9322 119.242 96.4375 119.593C96.706 119.78 96.9702 119.973 97.2336 120.166C99.0647 121.447 101.012 122.501 103.054 123.406C105.279 124.338 107.559 124.967 109.923 125.42C112.768 125.946 115.601 125.977 118.486 125.907C119.312 125.864 120.12 125.753 120.935 125.61C121.168 125.571 121.404 125.532 121.642 125.492C123.964 125.094 126.147 124.451 128.337 123.58C128.717 123.42 129.093 123.252 129.467 123.081C129.614 123.014 129.761 122.947 129.913 122.878C131.898 121.947 133.784 120.809 135.551 119.51C135.801 119.314 136.049 119.116 136.293 118.915C136.465 118.782 136.636 118.648 136.813 118.51C137.25 118.162 137.664 117.806 138.074 117.427C138.186 117.327 138.298 117.228 138.413 117.125C138.845 116.731 139.261 116.325 139.674 115.912C139.818 115.768 139.962 115.625 140.11 115.477C140.494 115.076 140.845 114.663 141.19 114.228C141.319 114.078 141.448 113.928 141.58 113.773C143.047 112.014 144.291 110.109 145.382 108.097C146.616 105.752 147.611 103.317 148.369 100.778C149.051 98.3505 149.485 95.8421 149.649 93.3255C149.736 90.6043 149.639 87.939 149.181 85.2542C148.755 82.8834 148.081 80.625 147.211 78.3777C146.279 76.1125 145.12 73.9931 143.752 71.966C143.402 71.4646 143.047 70.9737 142.676 70.4872C142.594 70.38 142.513 70.2737 142.429 70.1628C141.941 69.526 141.443 68.916 140.895 68.3299C140.821 68.2431 140.747 68.1555 140.671 68.0673C140.284 67.6321 139.877 67.2222 139.467 66.8093C139.309 66.6501 139.151 66.4902 138.988 66.3258C138.575 65.9271 138.153 65.5626 137.705 65.2048C137.604 65.1125 137.503 65.0203 137.399 64.9258C135.885 63.6031 134.171 62.4925 132.437 61.4853C131.872 61.1788 131.303 60.8835 130.73 60.5926C130.594 60.5234 130.457 60.4542 130.317 60.3828C128.244 59.3585 126.073 58.6741 123.845 58.0775C122.179 57.6579 120.498 57.4251 118.785 57.3202C116.476 57.2458 114.167 57.2369 111.884 57.6178L111.882 57.6185Z" fill="#4A4A48"/>
<path d="M101.866 93.25H102.459L102.905 93.5476C103.152 93.9443 103.325 94.2738 103.423 94.5362C103.469 94.6783 103.515 94.8196 103.563 94.9662C103.914 96.0091 104.365 96.9799 104.907 97.9373C105.504 98.8434 106.171 99.6735 106.91 100.467C107.534 101.051 108.215 101.544 108.937 102C109.606 102.383 110.286 102.706 110.996 103.005C111.976 103.315 113.01 103.557 114.033 103.665C114.939 103.711 115.815 103.673 116.713 103.545C117.838 103.353 118.903 103.056 119.969 102.648C120.933 102.247 121.852 101.769 122.737 101.216C123.65 100.563 124.501 99.9071 125.311 99.1283C125.433 99.013 125.556 98.8984 125.682 98.7794C126.678 97.7193 127.452 96.4882 128.237 95.2689C128.325 95.1432 128.412 95.0175 128.501 94.8881L128.872 94.5905L129.021 94.5161H129.466L129.911 94.8137L130.208 95.26V95.9295C129.718 97.0052 129.124 97.9537 128.427 98.9051C127.661 99.8796 126.833 100.819 125.882 101.616C125.742 101.728 125.603 101.84 125.459 101.955C125.321 102.075 125.184 102.195 125.042 102.318C124.182 103.012 123.241 103.588 122.269 104.112C120.922 104.765 119.553 105.291 118.101 105.653C117.096 105.876 116.115 105.985 115.086 105.995C114.355 105.986 113.644 105.931 112.92 105.823C112.727 105.797 112.534 105.771 112.336 105.744C111.414 105.548 110.537 105.262 109.656 104.931C109.254 104.743 108.857 104.548 108.468 104.336C108.333 104.266 108.199 104.197 108.06 104.127C107.343 103.71 106.669 103.249 106.043 102.704C105.938 102.604 105.831 102.504 105.723 102.402L105.352 102.105C105.176 101.908 105.004 101.71 104.833 101.509C104.728 101.396 104.621 101.283 104.513 101.166C103.866 100.422 103.327 99.6088 102.83 98.7571C102.256 97.6606 101.755 96.5484 101.383 95.3679C101.322 95.1365 101.26 94.9044 101.197 94.6656V93.9217C101.364 93.6956 101.538 93.4972 101.717 93.3266L101.865 93.2522L101.866 93.25Z" fill="#4A4A48"/>
<path d="M136.738 123.527H137.183L137.628 123.751L137.999 124.048C138.505 124.732 138.993 125.428 139.479 126.127C139.905 126.739 140.342 127.341 140.785 127.941C141.795 129.309 142.425 130.243 142.674 130.743V131.413L142.378 131.859L142.007 132.157L141.413 132.231L140.968 131.933C140.414 131.304 139.954 130.618 139.484 129.925C139.238 129.577 138.99 129.23 138.742 128.883C138.494 128.537 138.247 128.189 138 127.842C137.919 127.728 137.837 127.615 137.754 127.498C137.202 126.692 136.656 125.891 136.219 125.015L136.145 124.792V124.048L136.442 123.676L136.739 123.527H136.738Z" fill="#4A4A48"/>
<path d="M100.901 83.5801C101.247 83.5801 101.539 83.6034 101.777 83.65C101.904 83.7006 102.033 83.7517 102.162 83.8032C102.422 84.0046 102.669 84.2278 102.904 84.4728C103.077 84.7267 103.226 84.9746 103.349 85.2166C103.448 85.5638 103.507 85.8643 103.526 86.1183C103.507 86.4099 103.455 86.7245 103.369 87.0623C103.314 87.214 103.258 87.3675 103.202 87.5227C103.004 87.8203 102.781 88.1178 102.534 88.4154C102.317 88.5518 102.095 88.6758 101.866 88.7874L101.347 88.9361H100.827C100.583 88.8588 100.336 88.7596 100.085 88.6386C99.8752 88.4868 99.6774 88.3132 99.4919 88.1178C99.3247 87.8481 99.1763 87.5753 99.0467 87.2996C98.9478 86.9028 98.8889 86.5604 98.8701 86.2722C98.879 86.1205 98.8887 85.9687 98.8983 85.8118C98.9784 85.5296 99.0774 85.2568 99.1951 84.9935C99.3311 84.7579 99.4795 84.5347 99.6403 84.324C99.8287 84.1316 100.027 83.958 100.234 83.8032L100.902 83.5801H100.901Z" fill="#4A4A48"/>
<path d="M129.986 83.877H130.654C130.904 83.9543 131.151 84.0535 131.395 84.1745C131.606 84.3327 131.804 84.5063 131.989 84.6952C132.156 84.9214 132.305 85.1446 132.434 85.3647L132.583 85.8111C132.598 86.1954 132.598 86.5922 132.583 87.0013C132.527 87.2711 132.453 87.5191 132.36 87.7452C132.227 87.9778 132.079 88.201 131.915 88.4147C131.726 88.6037 131.529 88.7772 131.321 88.9354L130.654 89.233H129.912C129.649 89.1244 129.402 89.0004 129.17 88.8611C128.922 88.6131 128.721 88.3805 128.567 88.1633C128.425 87.9342 128.279 87.646 128.131 87.2989C128.081 87.0509 128.057 86.679 128.057 86.183C128.134 85.8855 128.233 85.5879 128.353 85.2904C128.514 85.0235 128.687 84.7756 128.873 84.5465L129.466 84.1001L129.986 83.877Z" fill="#4A4A48"/>
<path d="M153.209 65.8008H153.803L154.397 66.1727L154.619 66.5447L154.545 67.2142C154.369 67.4681 154.171 67.7161 153.951 67.9581C153.755 68.1344 153.557 68.3077 153.358 68.4788L152.876 68.9623C151.716 70.125 150.397 71.1092 149.054 72.0495L148.758 72.1983H148.238L147.867 71.9751L147.57 71.6032L147.496 71.38C147.475 71.0948 147.475 70.7973 147.496 70.4873L147.941 69.9666C148.286 69.7159 148.632 69.4682 148.98 69.2227C149.876 68.519 150.753 67.7862 151.591 67.0141C151.972 66.6652 152.353 66.3356 152.764 66.024L153.209 65.8008Z" fill="#4A4A48"/>
<path d="M91.6268 51.1453H92.2203L92.6655 51.3684C93.0595 51.7679 93.3971 52.1726 93.7191 52.6323C93.8185 52.7878 93.9172 52.9425 94.0196 53.1025C94.1279 53.2721 94.237 53.4417 94.3483 53.6158C94.4536 53.7824 94.5597 53.949 94.6688 54.1209C94.7615 54.2652 94.8543 54.4095 94.95 54.5583C95.5169 55.4435 96.0622 56.3406 96.5979 57.2452C96.681 57.3717 96.7648 57.4974 96.8509 57.6276C96.9147 57.7466 96.9778 57.8664 97.0431 57.9891L96.9689 58.5098L96.6721 59.0306L96.3753 59.2537L95.7075 59.3281L95.1882 58.8818C95.0064 58.6147 94.835 58.341 94.6688 58.0635C94.1672 57.2326 93.653 56.4143 93.1107 55.6087C93.0142 55.4628 92.9178 55.317 92.8183 55.1668C92.3534 54.465 91.8681 53.7784 91.3626 53.1069C91.2785 52.9993 91.1934 52.8907 91.1074 52.7811L90.959 52.3348V51.7396L91.33 51.2933L91.6268 51.1445V51.1453Z" fill="#4A4A48"/>
<path d="M146.309 113.633H146.977C148.373 114.255 149.685 115.027 150.999 115.806C151.555 116.129 152.119 116.44 152.682 116.751C152.935 116.904 153.235 117.129 153.581 117.427L153.729 117.65V118.171L153.433 118.766L153.062 119.063L152.913 119.138L152.246 119.063C152.023 118.956 151.793 118.831 151.555 118.687C151.418 118.606 151.282 118.525 151.141 118.441C150.991 118.352 150.842 118.263 150.687 118.171C149.462 117.459 148.227 116.768 146.972 116.11C146.679 115.946 146.335 115.716 145.939 115.418L145.642 114.972V114.377L145.865 114.005L146.31 113.633H146.309Z" fill="#4A4A48"/>
<path d="M117.002 129.924H117.595L118.115 130.221L118.411 130.593L118.56 131.04C118.583 131.453 118.597 131.865 118.607 132.278C118.609 132.4 118.612 132.522 118.616 132.648C118.626 133.039 118.635 133.429 118.644 133.82C118.65 134.081 118.656 134.341 118.663 134.601C118.68 135.299 118.696 135.996 118.708 136.694C118.713 136.906 118.719 137.117 118.724 137.335C118.719 137.516 118.713 137.698 118.708 137.884L118.486 138.479C118.238 138.727 118.04 138.901 117.892 139H117.373C117.177 138.853 116.981 138.706 116.779 138.554L116.556 138.033C116.446 136.649 116.466 135.255 116.464 133.866C116.464 133.46 116.462 133.053 116.459 132.646C116.459 132.386 116.459 132.127 116.458 131.868C116.458 131.634 116.456 131.4 116.456 131.159C116.464 130.972 116.473 130.785 116.482 130.593L116.705 130.147L117.002 129.924Z" fill="#4A4A48"/>
<path d="M118.263 44.0045C118.383 44.003 118.502 44.0015 118.625 44C118.751 44.026 118.876 44.0521 119.005 44.0789L119.525 44.5252L119.599 44.674C119.652 46.4043 119.562 48.1353 119.469 49.8634C119.456 50.1297 119.446 50.396 119.439 50.6623C119.428 51.0224 119.403 51.3817 119.376 51.741L119.079 52.3361L118.708 52.6337L118.56 52.708H118.041L117.447 52.2617L117.299 51.8898C117.286 51.5059 117.283 51.1213 117.285 50.7367C117.285 50.5304 117.285 50.3219 117.286 50.1111C117.294 49.7595 117.323 49.4597 117.373 49.2117C117.386 48.7669 117.397 48.322 117.405 47.8772C117.43 46.8283 117.46 45.7898 117.595 44.7484L117.892 44.2276L118.263 44.0045Z" fill="#4A4A48"/>
<path d="M85.0233 114.08L85.6169 114.154L86.2104 114.526L86.3588 114.75V115.345L86.062 115.94C85.5449 116.445 84.9884 116.896 84.4297 117.353C84.3214 117.454 84.2123 117.556 84.1003 117.66C83.2723 118.387 82.3723 119.039 81.4619 119.659L81.0167 119.882H80.4973L79.978 119.511L79.7554 118.99V118.246L80.2005 117.651C80.3999 117.49 80.6101 117.334 80.8312 117.181C81.6429 116.61 82.4153 115.997 83.1825 115.369C83.6373 114.997 84.0958 114.639 84.5781 114.304L85.0233 114.081V114.08Z" fill="#4A4A48"/>
<path d="M142.006 53.75H142.525L142.97 53.9732L143.415 54.4939V55.089C143.217 55.4858 143.041 55.7853 142.886 55.9876C142.799 56.0903 142.712 56.1922 142.622 56.2978C142.201 56.8007 141.802 57.314 141.412 57.8414C141.214 58.0891 141.017 58.3376 140.818 58.5853C140.465 59.0525 140.12 59.5219 139.78 59.9987L139.186 60.3707L138.667 60.2963L138.147 59.8499L137.999 59.478V58.7341C138.374 58.0237 138.903 57.4219 139.409 56.8C140.019 56.0449 140.599 55.269 141.171 54.485C141.25 54.3898 141.33 54.2945 141.412 54.1963L142.006 53.75Z" fill="#4A4A48"/>
<path d="M77.6777 89.3074L78.2712 89.6793L78.4938 89.9769V90.6464L78.197 91.0927L77.9002 91.3159L77.4551 91.4647C76.9876 91.4974 76.5224 91.5234 76.0542 91.5435C75.382 91.5738 74.7113 91.6219 74.042 91.6878C73.6926 91.6982 73.3431 91.7042 72.9944 91.7064C72.8119 91.7086 72.6301 91.7101 72.4416 91.7124C72.2843 91.7042 72.127 91.696 71.9646 91.6878L71.5194 91.4647L71.0742 90.9439L71 90.7208V90.0512L71.371 89.6049C71.7667 89.5057 72.173 89.4467 72.59 89.4279C72.8319 89.4234 73.0745 89.4189 73.3238 89.4145C74.0737 89.3996 74.8233 89.3748 75.5727 89.3401C76.2813 89.3029 76.9683 89.2791 77.6784 89.3074H77.6777Z" fill="#4A4A48"/>
<path d="M153.951 89.5308C154.208 89.5338 154.465 89.5419 154.721 89.5538C154.86 89.5598 155 89.5657 155.141 89.5717C155.436 89.594 155.724 89.6287 156.004 89.6758C156.963 89.8135 157.933 89.838 158.899 89.8849C159.058 89.8938 159.217 89.9025 159.379 89.9109C159.523 89.9184 159.667 89.9251 159.814 89.9325C159.936 89.9466 160.058 89.9615 160.183 89.9756L160.628 90.1988L160.925 90.5708L160.999 90.7195L160.925 91.389C160.761 91.6092 160.588 91.8076 160.406 91.9842L160.109 92.1329C159.066 92.1694 158.051 92.0764 157.016 91.9611C156.865 91.9455 156.714 91.9291 156.558 91.9127C155.754 91.825 154.96 91.7305 154.172 91.5378L153.653 91.2403L153.356 90.8683C153.329 90.5708 153.329 90.2732 153.356 89.9756L153.727 89.6037L153.95 89.5293L153.951 89.5308Z" fill="#4A4A48"/>
<path d="M94.8168 124.197H95.4104L95.8555 124.42L96.3007 124.941L96.2265 125.611C95.4942 127.124 94.454 128.486 93.4813 129.851C93.2834 130.099 93.0841 130.327 92.8832 130.535C92.7868 130.604 92.6903 130.673 92.5909 130.744L91.9973 130.818L91.4038 130.372L91.2554 129.925V129.181C91.5388 128.684 91.8638 128.243 92.2088 127.787C92.7096 127.11 93.157 126.398 93.6111 125.69C93.876 125.283 94.155 124.885 94.4458 124.496L94.8168 124.198V124.197Z" fill="#4A4A48"/>
<path d="M79.4584 65.4277H80.1262C80.6841 65.6643 81.1813 65.9842 81.6843 66.3204C82.0553 66.5934 82.4263 66.8657 82.7972 67.1387C83.2788 67.4586 83.7729 67.7532 84.2723 68.0455C84.6739 68.284 84.9984 68.5025 85.2457 68.7009L85.3941 68.9984V69.5192L84.9489 70.1143L84.5038 70.3374L83.836 70.2631C83.6045 70.151 83.371 70.024 83.1356 69.8822C83.0117 69.8071 82.8878 69.7327 82.7602 69.6553C82.3921 69.4232 82.0375 69.1777 81.6843 68.924C81.4409 68.7634 81.1961 68.6042 80.9512 68.445C80.8229 68.3609 80.6938 68.2776 80.5617 68.1913C80.2724 68.0038 79.9815 67.8194 79.6899 67.6364C79.5643 67.5456 79.4376 67.4541 79.31 67.3619L78.8648 66.7667C78.8493 66.6269 78.8344 66.4878 78.8188 66.3435C78.8344 66.2133 78.8493 66.0824 78.8648 65.9485L79.1616 65.5765L79.4584 65.4277Z" fill="#4A4A48"/>
</g>
<path d="M190.954 97.2574C190.954 76.9161 182.873 57.408 168.49 43.0245C154.106 28.6411 134.598 20.5605 114.257 20.5605C93.9156 20.5605 74.4075 28.6411 60.024 43.0245C45.6406 57.408 37.5601 76.9161 37.5601 97.2574" stroke="white" stroke-width="3" stroke-linecap="round"/>
<path d="M37 96.9769C37 77.6706 44.2548 59.0691 57.3259 44.8607C70.397 30.6522 88.3301 21.8743 107.569 20.2673C126.809 18.6603 145.95 24.3415 161.197 36.1846C176.444 48.0277 186.684 65.1679 189.887 84.2067" stroke="#4CAF50" stroke-width="9" stroke-linecap="round"/>
<circle cx="190.114" cy="82.4214" r="2.19873" fill="white" stroke="#4CAF50" stroke-width="4"/>
<circle cx="190.03" cy="84.0296" r="5.02958" fill="white" stroke="#4CAF50" stroke-width="4"/>
<defs>
<clipPath id="clip0_54820_1087">
<rect width="90" height="95" fill="white" transform="translate(71 44)"/>
</clipPath>
</defs>
</svg>
