<svg width="105" height="113" viewBox="0 0 105 113" fill="none" xmlns="http://www.w3.org/2000/svg">
<g clip-path="url(#clip0_54719_1182)">
<path d="M44.6477 4.4362L45.1669 27.9089L61.78 29.4738V5.47944C61.6069 4.26233 62.2991 1.82812 66.4524 1.82812C70.6057 1.82812 71.644 4.26233 71.644 5.47944V23.2144V37.8196L72.6823 57.1194C69.5674 68.5949 66.4524 65.9869 52.4351 66.5085C38.4178 67.0301 38.937 64.9436 36.8603 63.3788C35.199 62.1269 34.7837 56.5978 34.7837 53.9897L33.7454 28.4305C33.9184 21.6495 34.2645 7.5659 34.2645 5.47944C34.2645 2.87136 36.3412 1.82812 38.937 1.82812C41.0136 1.82812 43.6094 3.56684 44.6477 4.4362Z" fill="white"/>
<path d="M69.0533 77.2316C55.5538 85.0987 58.5327 99.5937 58.5327 99.5937C58.5327 99.5937 69.637 109.354 83.1365 101.485C92.9846 95.7439 89.6867 85.4139 103.562 76.2121C91.4506 73.4057 79.0207 71.421 69.0533 77.2316Z" fill="#73BD80"/>
<path d="M78.3357 36.7462C78.3357 38.6906 76.7719 40.2657 74.8415 40.2657H30.8231C28.8927 40.2657 27.3289 38.6906 27.3289 36.7462V32.9219C27.3289 30.9775 28.8927 29.4023 30.8231 29.4023H74.8415C76.7719 29.4023 78.3357 30.9775 78.3357 32.9219V36.7462Z" fill="#83BCD9"/>
<path d="M37.2878 77.3195C51.0307 85.3708 47.9981 100.205 47.9981 100.205C47.9981 100.205 36.6936 110.194 22.9507 102.141C12.9252 96.2653 16.2825 85.6934 2.15747 76.2761C14.4868 73.4039 27.1407 71.3727 37.2878 77.3195Z" fill="#73BD80"/>
<path d="M54.1874 68.8965H52.2856V105.287C52.6633 106.079 52.9792 106.788 53.2354 107.398C53.4916 106.788 53.8075 106.079 54.1852 105.287V68.8965" fill="#014A15"/>
<path d="M54.1874 67.4141H52.2856V68.898H54.1874V67.4141Z" fill="#004311"/>
<path d="M53.1429 111.012C53.1429 111.012 53.1517 111.012 53.1561 111.012C53.1517 111.012 53.1473 111.012 53.1429 111.012ZM53.3306 111.012C53.3306 111.012 53.3218 111.012 53.3151 111.012C53.3196 111.012 53.324 111.012 53.3306 111.012ZM52.7828 110.899C52.8911 110.959 53.0125 110.996 53.1429 111.01C53.0722 111.003 53.0037 110.988 52.9374 110.965C52.9374 110.965 52.9352 110.965 52.933 110.965C52.9308 110.965 52.9264 110.963 52.9242 110.963C52.9198 110.963 52.9154 110.959 52.9109 110.959C52.9109 110.959 52.9109 110.959 52.9087 110.959C52.8645 110.943 52.8226 110.923 52.7828 110.901M53.7348 110.874C53.6862 110.903 53.6354 110.927 53.5824 110.95C53.5824 110.95 53.5736 110.954 53.5691 110.954C53.5691 110.954 53.5647 110.954 53.5625 110.956C53.5625 110.956 53.5603 110.956 53.5581 110.956C53.4852 110.983 53.4079 111.001 53.3306 111.008C53.4764 110.992 53.6133 110.945 53.7348 110.872M53.7414 110.87C53.7414 110.87 53.737 110.872 53.7348 110.874C53.737 110.874 53.7392 110.87 53.7414 110.87ZM54.1059 110.447C54.1059 110.447 54.1037 110.451 54.1015 110.456C54.1015 110.454 54.1037 110.451 54.1059 110.447ZM54.1147 110.425C54.1147 110.425 54.1103 110.436 54.1081 110.44C54.1103 110.436 54.1125 110.429 54.1147 110.425ZM52.3521 110.409C52.3521 110.409 52.3543 110.416 52.3565 110.42C52.3565 110.418 52.3565 110.416 52.3543 110.414C52.3543 110.414 52.3543 110.411 52.3543 110.409M52.3455 110.394C52.3455 110.394 52.3477 110.4 52.3477 110.402C52.3477 110.4 52.3455 110.396 52.3455 110.394ZM52.3433 110.385C52.3433 110.385 52.3433 110.389 52.3455 110.391C52.3455 110.391 52.3455 110.391 52.3455 110.389C52.3455 110.389 52.3455 110.389 52.3455 110.387M52.3389 110.373C52.3389 110.373 52.3389 110.376 52.3389 110.378C52.3389 110.378 52.3389 110.376 52.3389 110.373ZM54.1456 110.338C54.1456 110.338 54.1456 110.342 54.1456 110.345C54.1456 110.345 54.1456 110.349 54.1434 110.351C54.1346 110.376 54.1258 110.4 54.1169 110.425C54.128 110.396 54.139 110.367 54.1478 110.338" fill="#014A15"/>
<path d="M72.9796 42.0781C72.9266 42.0803 72.8758 42.0826 72.8228 42.0826H71.0778V57.6112C71.0778 59.5757 70.3666 61.3666 69.1893 62.7482C68.6681 64.3878 67.6852 65.8205 66.3953 66.8906C67.8177 66.4012 69.0922 65.5892 70.1303 64.5435C71.8907 62.7726 72.9818 60.3165 72.9796 57.6112V42.0803" fill="#014A15"/>
<path d="M35.3954 42.0823H33.4937V57.611C33.4937 60.3163 34.5848 62.7724 36.343 64.5433C38.1011 66.3164 40.5396 67.4132 43.2232 67.4132H63.2479C64.3478 67.4132 65.4058 67.2285 66.3953 66.8881C67.6852 65.8203 68.6681 64.3875 69.1894 62.7457C69.0591 62.897 68.9244 63.0438 68.7852 63.1862C67.365 64.6145 65.4146 65.4954 63.2501 65.4954H43.2277C41.0631 65.4954 39.1105 64.6145 37.6903 63.1862C36.2723 61.7557 35.3976 59.7912 35.3976 57.6088V42.0801" fill="#004311"/>
<path d="M35.3954 40.5996H33.4937V42.0835H35.3954V40.5996ZM72.9796 40.5996H71.0779V42.0835H72.8228C72.8758 42.0835 72.9288 42.0835 72.9796 42.0791V40.5996Z" fill="#004013"/>
<path d="M62.5698 45.9883H43.908C43.21 45.9883 42.5717 46.2753 42.1145 46.7358C41.6572 47.1963 41.3723 47.8393 41.3723 48.5423C41.3723 48.8382 41.4231 49.1229 41.5159 49.3877H60.1468C61.0214 49.3877 61.7305 50.1018 61.7305 50.985C61.7305 51.0229 61.7304 51.0607 61.726 51.0963H62.572C63.2677 51.0963 63.9061 50.8093 64.3611 50.3488C64.8183 49.8905 65.1032 49.2453 65.1032 48.5423H63.2015C63.2015 48.7225 63.133 48.876 63.0159 48.9939C62.8989 49.1096 62.7465 49.1808 62.5676 49.1808H43.9058C43.7269 49.1808 43.5744 49.1096 43.4574 48.9939C43.3403 48.876 43.2718 48.7225 43.2718 48.5423C43.2718 48.3621 43.3403 48.2086 43.4574 48.0907C43.5744 47.9727 43.7269 47.9038 43.9058 47.9038H62.5676C62.7443 47.9038 62.8989 47.9727 63.0159 48.0907C63.133 48.2086 63.2015 48.3621 63.2015 48.5423H65.1032C65.1032 47.8393 64.8183 47.1963 64.3611 46.7358C63.9061 46.2753 63.2677 45.9883 62.5698 45.9883Z" fill="#004311"/>
<path d="M60.1424 49.3887H41.5115C41.6396 49.7535 41.8472 50.0828 42.1123 50.3498C42.5673 50.8103 43.2056 51.0973 43.9036 51.0973H61.7238C61.726 51.0594 61.7282 51.0239 61.7282 50.986C61.7282 50.105 61.0192 49.3887 60.1446 49.3887" fill="#004013"/>
<path d="M60.4029 52.5586C60.319 52.5719 60.2328 52.5808 60.1445 52.5808H46.0217C45.7235 52.7099 45.454 52.8945 45.2287 53.1215C44.7715 53.5797 44.4866 54.2249 44.4866 54.9279C44.4866 55.2238 44.5374 55.5086 44.6301 55.7733H57.0323C57.907 55.7733 58.6182 56.4875 58.6182 57.3685C58.6182 57.4063 58.6182 57.4441 58.6138 57.4819H59.4575C60.1555 57.4819 60.7961 57.1949 61.2511 56.7344C61.7083 56.2761 61.9954 55.631 61.9954 54.9279H60.0937C60.0937 55.1081 60.023 55.2616 59.9081 55.3796C59.7911 55.4975 59.6387 55.5664 59.4598 55.5664H47.0266C46.8477 55.5664 46.6953 55.4975 46.5783 55.3796C46.4612 55.2616 46.3927 55.1081 46.3927 54.9279C46.3927 54.7477 46.4612 54.5942 46.5783 54.4763C46.6953 54.3584 46.8477 54.2894 47.0266 54.2894H59.4598C59.6387 54.2894 59.7911 54.3584 59.9081 54.4763C60.023 54.5942 60.0937 54.7477 60.0937 54.9279H61.9954C61.9954 54.2249 61.7105 53.582 61.2511 53.1215C61.0147 52.8812 60.7276 52.6876 60.4073 52.5586" fill="#004311"/>
<path d="M59.4554 52.375H47.0201C46.6667 52.375 46.3288 52.4484 46.0195 52.5819H60.1423C60.2307 52.5819 60.3168 52.5752 60.4008 52.5597C60.107 52.4395 59.7867 52.375 59.4532 52.375" fill="#004013"/>
<path d="M57.0279 55.7734H44.6257C44.7538 56.1383 44.9615 56.4676 45.2265 56.7345C45.6815 57.195 46.3221 57.482 47.0178 57.482H58.6094C58.6116 57.4442 58.6138 57.4064 58.6138 57.3686C58.6138 56.4876 57.9048 55.7734 57.0279 55.7734Z" fill="#004013"/>
<path d="M39.7068 0.5H39.7046C37.9928 0.5 36.4334 1.20079 35.3136 2.33096C34.5008 3.14744 33.9132 4.19529 33.6482 5.36328C34.3903 4.64914 35.3401 4.1508 36.3981 3.97282C36.4798 3.8727 36.5682 3.77704 36.6587 3.68583C37.4406 2.89827 38.5119 2.4155 39.7046 2.4155C40.8973 2.4155 41.9664 2.90049 42.7505 3.68583C43.5324 4.47338 44.0117 5.55238 44.0117 6.75374V27.8176H45.9134V6.75374C45.9134 5.02957 45.2155 3.4589 44.0934 2.33096C42.9736 1.20302 41.4164 0.5 39.7068 0.5Z" fill="#014A15"/>
<path d="M36.396 3.97266C35.3402 4.15286 34.3904 4.64898 33.6461 5.36312C33.5445 5.81029 33.4915 6.27526 33.4915 6.75358V27.8174H35.3932V6.75358C35.3932 5.69238 35.7687 4.72684 36.3938 3.97266" fill="#004311"/>
<path d="M66.773 0.5H66.7708C65.059 0.5 63.5018 1.20079 62.3798 2.33096C61.5691 3.14744 60.9794 4.19529 60.7144 5.36328C61.4565 4.64914 62.4063 4.1508 63.4621 3.97282C63.5438 3.8727 63.6321 3.77704 63.7227 3.68583C64.5046 2.89827 65.5758 2.4155 66.7686 2.4155C67.9613 2.4155 69.0325 2.90049 69.8144 3.68583C70.5963 4.47338 71.0756 5.55238 71.0778 6.75374V27.8176H72.9796V6.75374C72.9796 5.02957 72.2816 3.4589 71.1596 2.33096C70.0397 1.20302 68.4826 0.5 66.773 0.5Z" fill="#014A15"/>
<path d="M63.4621 3.97266C62.4063 4.15286 61.4566 4.64898 60.7144 5.36312C60.6128 5.81029 60.5598 6.27526 60.5598 6.75358V27.8174H62.4616V6.75358C62.4616 5.69238 62.837 4.72684 63.4621 3.97266Z" fill="#004311"/>
<path d="M79.692 36.1211H77.7902C77.7902 36.8308 77.5075 37.467 77.0459 37.932C76.8338 38.1434 76.5886 38.3169 76.317 38.4459V38.5616C76.317 39.3114 76.0851 40.0055 75.6897 40.575C76.7388 40.4704 77.6864 39.9966 78.391 39.2847C79.1928 38.4771 79.6942 37.3514 79.692 36.1189M32.0203 27.8184H31.2274C30.0015 27.8184 28.8861 28.3212 28.0843 29.131C27.3797 29.8406 26.907 30.7928 26.8032 31.8518C27.3687 31.4536 28.06 31.22 28.8021 31.22H28.917C29.0429 30.9463 29.2174 30.6994 29.4272 30.4858C29.8911 30.0208 30.5206 29.7361 31.2252 29.7361H32.0181V27.8206M59.0864 27.8184H42.5384V29.7339H59.0864V27.8184ZM75.2479 27.8184H69.6046V29.7339H75.2457C75.9503 29.7339 76.582 30.0186 77.0437 30.4836C77.5053 30.9508 77.788 31.5848 77.788 32.2968V36.1211H79.6898V32.2968C79.6898 31.0643 79.1906 29.9363 78.3888 29.131C77.587 28.3234 76.4716 27.8184 75.2457 27.8184" fill="#014A15"/>
<path d="M42.5386 27.8184H35.3955H33.4937H32.0205V29.7339H42.5386V27.8184Z" fill="#004311"/>
<path d="M69.6045 27.8184H62.4614H60.5597H59.0864V29.7339H69.6045V27.8184Z" fill="#004311"/>
<path d="M28.9193 31.2168H28.8045C28.0601 31.2168 27.371 31.4504 26.8055 31.8486C26.7901 31.9955 26.7834 32.1445 26.7834 32.2936V36.1179C26.7834 37.3526 27.2826 38.4761 28.0866 39.2837C28.8884 40.0913 30.0038 40.5941 31.2297 40.5941H75.2503C75.4004 40.5941 75.5462 40.5874 75.692 40.5718C76.0874 40.0001 76.3193 39.3059 76.3193 38.5584V38.4427C75.9946 38.594 75.6324 38.6786 75.248 38.6808H31.2297C30.5229 38.6808 29.8934 38.396 29.4317 37.9311C28.9701 37.4639 28.6874 36.8298 28.6874 36.1201V32.2958C28.6874 31.9087 28.7713 31.5438 28.9237 31.2168" fill="#004013"/>
<path d="M47.0025 99.7928C46.7595 99.973 46.4481 100.195 46.077 100.44C45.9953 101.699 45.8407 102.451 45.8407 102.451C45.8407 102.451 45.2002 103.016 44.0406 103.771C44.3012 103.648 44.5508 103.524 44.7915 103.401C46.2272 102.663 47.3272 101.926 48.0252 101.415C47.7049 100.885 47.3625 100.345 47.0025 99.795M21.7873 72.3262C15.3907 72.3262 8.73576 73.6276 2.21108 75.1471C1.84222 75.2317 1.55729 75.5342 1.48882 75.9102C1.42034 76.2862 1.58379 76.6689 1.89965 76.878C2.35686 77.1828 2.7964 77.4898 3.21607 77.7968C4.03993 77.6188 4.8638 77.4475 5.68767 77.2851C5.37623 77.0359 5.05596 76.7868 4.72465 76.5376C10.5138 75.2473 16.3052 74.2417 21.7851 74.2439C24.535 74.2439 27.2076 74.4953 29.7654 75.0848C32.3231 75.6744 34.766 76.5999 37.0763 77.9525C41.6706 80.6489 44.2681 84.0772 45.759 87.441C47.2455 90.8004 47.5989 94.1064 47.5989 96.4601C47.5989 96.7427 47.5945 97.0096 47.5856 97.261C48.193 98.1265 48.7541 98.9741 49.2665 99.7972C49.357 99.2121 49.5006 98.0308 49.5006 96.4601C49.5006 93.9173 49.1251 90.3488 47.4973 86.6624C45.8738 82.9782 42.9759 79.1895 38.0327 76.2973C35.5457 74.8401 32.9128 73.8457 30.1916 73.2183C27.4682 72.5909 24.6543 72.3284 21.7873 72.3284" fill="#014A15"/>
<path d="M5.68767 77.2852C4.8638 77.4476 4.03993 77.6189 3.21606 77.7968C5.96155 79.8013 7.93397 81.8325 9.46685 83.8504C12.1174 87.3387 13.4581 90.816 15.1102 94.0975C15.9363 95.7349 16.8463 97.3211 18.0545 98.7939C19.2605 100.267 20.7647 101.617 22.7415 102.774C26.8255 105.17 30.7505 106.042 34.2381 106.042H34.2491C38.1741 106.042 41.5358 104.954 44.0406 103.771C45.2002 103.016 45.8407 102.451 45.8407 102.451C45.8407 102.451 45.9953 101.699 46.077 100.44C45.4763 100.836 44.7164 101.295 43.8175 101.751C41.4475 102.952 38.1299 104.127 34.2513 104.127C31.0707 104.124 27.5058 103.348 23.6979 101.119C21.3213 99.7216 19.7729 98.0887 18.5161 96.2155C17.5752 94.8116 16.8066 93.2677 16.018 91.6147C14.8363 89.1363 13.6127 86.4088 11.6579 83.619C10.1803 81.5099 8.28296 79.3742 5.68987 77.2874" fill="#004617"/>
<path d="M50.8125 102.427V106.629C51.0776 107.201 51.3073 107.721 51.4994 108.18C51.791 108.869 52.0008 109.419 52.1356 109.793C52.204 109.98 52.2526 110.122 52.2858 110.218C52.3012 110.264 52.3145 110.3 52.3211 110.324L52.3255 110.34C52.2703 110.16 52.2681 109.962 52.3299 109.768C52.3388 109.744 52.6193 108.863 53.2355 107.401C52.9771 106.791 52.6635 106.082 52.2858 105.29C51.8727 104.424 51.3824 103.461 50.8125 102.429M45.792 94.8535C46.0151 96.1884 46.1034 97.4253 46.1211 98.4954C46.4281 98.9337 46.7197 99.3675 47.0002 99.7947C47.3624 100.344 47.7026 100.885 48.0229 101.414C48.2702 101.821 48.5044 102.22 48.7274 102.609C49.5867 104.106 50.2736 105.474 50.8103 106.629V102.427C50.3487 101.59 49.834 100.709 49.2642 99.7969C48.7495 98.9737 48.1907 98.1261 47.5833 97.2607C47.4508 97.0716 47.316 96.8825 47.1769 96.6912C46.7396 96.0838 46.2757 95.4698 45.7898 94.8535" fill="#014A15"/>
<path d="M21.4758 78.5374C21.0561 78.5374 20.674 78.8177 20.5591 79.2448C20.4222 79.7565 20.7204 80.2816 21.2284 80.4195C27.1346 82.0369 32.0248 84.7088 36.047 87.8168C40.343 91.1339 43.6495 94.9515 46.1233 98.4933C46.1056 97.4232 46.0151 96.1862 45.7942 94.8514C43.5015 91.9459 40.6655 88.9714 37.2043 86.295C33.0099 83.0536 27.8922 80.2549 21.7276 78.5685C21.6436 78.5463 21.5597 78.5352 21.478 78.5352" fill="#004617"/>
<path d="M53.2003 111.014C53.2003 111.014 53.2113 111.014 53.2179 111.014C53.2113 111.014 53.2069 111.014 53.2003 111.014ZM52.9352 110.967C53.0015 110.989 53.0699 111.005 53.1406 111.012C53.1406 111.012 53.1495 111.012 53.1539 111.012C53.1693 111.012 53.1826 111.014 53.1981 111.014C53.1141 111.012 53.028 110.996 52.944 110.969C52.9396 110.969 52.9374 110.967 52.933 110.965M52.9242 110.963C52.9242 110.963 52.9308 110.963 52.933 110.965C52.9308 110.965 52.9264 110.963 52.9242 110.963ZM53.5625 110.958C53.5625 110.958 53.5603 110.958 53.5581 110.958C53.5581 110.958 53.5603 110.958 53.5625 110.958ZM52.9065 110.956C52.9065 110.956 52.9065 110.956 52.9087 110.956C52.9087 110.956 52.9087 110.956 52.9065 110.956ZM53.5824 110.949C53.5824 110.949 53.5735 110.954 53.5691 110.954C53.5735 110.954 53.578 110.952 53.5824 110.949ZM53.8916 110.754C53.801 110.838 53.6972 110.905 53.5824 110.952C53.6354 110.932 53.6862 110.905 53.7348 110.876C53.7348 110.876 53.7392 110.872 53.7414 110.872C53.7436 110.872 53.7458 110.869 53.748 110.867C53.7988 110.834 53.8474 110.796 53.8894 110.756M53.9004 110.743C53.9004 110.743 53.896 110.747 53.8916 110.749C53.8938 110.747 53.896 110.745 53.9004 110.743ZM52.5509 110.722C52.5509 110.722 52.5553 110.727 52.5575 110.729C52.5553 110.727 52.5531 110.725 52.5509 110.722ZM52.3543 110.413C52.3543 110.413 52.3543 110.418 52.3565 110.42C52.4029 110.533 52.4692 110.636 52.5487 110.72C52.4647 110.631 52.3985 110.527 52.3543 110.413ZM52.3499 110.402C52.3499 110.402 52.3499 110.407 52.3521 110.407C52.3521 110.407 52.3521 110.409 52.3521 110.411C52.3521 110.409 52.3499 110.404 52.3477 110.402M52.3433 110.387C52.3433 110.387 52.3433 110.387 52.3433 110.389C52.3433 110.389 52.3433 110.389 52.3433 110.387ZM54.1434 110.342V110.347C54.1434 110.344 54.1434 110.342 54.1456 110.34" fill="#014A15"/>
<path d="M82.2631 75.7246C77.4082 75.7246 72.7522 76.4921 68.4804 78.5144C64.4516 81.1152 62.1037 84.3054 60.7144 87.4379C59.2279 90.7994 58.8745 94.1032 58.8745 96.4569C58.8745 96.7395 58.8789 97.0065 58.8878 97.2579C61.4411 93.6249 64.8426 89.716 69.2689 86.2966C73.4634 83.0551 78.5833 80.2564 84.7479 78.5701C84.8319 78.5478 84.9158 78.5367 84.9975 78.5367C85.415 78.5367 85.7993 78.817 85.9141 79.2441C86.0511 79.7558 85.7529 80.2809 85.2471 80.4188C79.3851 82.0228 74.528 84.6681 70.5213 87.7449C66.5168 90.8217 63.3671 94.3323 60.9441 97.6605C60.4184 98.3813 59.9281 99.0955 59.4687 99.7918C59.5636 99.863 59.6675 99.9387 59.7823 100.021C60.4184 100.475 61.3572 101.084 62.5433 101.694C64.9177 102.915 68.2794 104.128 72.2176 104.128H72.2221C75.4027 104.126 78.9676 103.349 82.7755 101.12C84.558 100.072 85.8722 98.8908 86.9523 97.576C87.4448 96.9753 87.8888 96.3457 88.2996 95.6894C89.4327 93.3957 90.4752 90.9329 91.9993 88.4101C92.9292 86.5635 94.0159 84.6369 95.4935 82.688C96.6531 81.1596 98.0557 79.6223 99.8006 78.1073C93.8922 76.7814 87.9418 75.7291 82.2587 75.7291" fill="#74BD80"/>
<path d="M84.6862 72.3262C81.8214 72.3262 79.0052 72.5887 76.2818 73.2161C73.5584 73.8434 70.9278 74.8379 68.4407 76.2951C63.5704 79.145 60.6836 82.867 59.0469 86.5C60.6946 83.9905 63.0757 81.5677 66.4926 79.5632C67.1442 79.1806 67.8068 78.8335 68.4783 78.5154C68.7743 78.3241 69.0813 78.135 69.3949 77.9503C71.7031 76.5977 74.146 75.6722 76.7037 75.0826C79.2614 74.4931 81.9318 74.2417 84.6839 74.2417H84.695C90.1727 74.2417 95.9597 75.2472 101.744 76.5354C101.053 77.056 100.406 77.5788 99.8007 78.1038C100.408 78.2395 101.016 78.3797 101.623 78.5198C96.7659 81.7568 93.9762 85.1318 91.9994 88.4044C91.149 90.0974 90.4289 91.7192 89.6669 93.2254C89.234 94.0819 88.7878 94.9028 88.2997 95.6837C86.7513 98.8161 85.0307 101.635 81.6712 103.86C82.3537 103.539 83.0406 103.177 83.732 102.769C86.367 101.228 88.1605 99.3367 89.5344 97.2811C90.5681 95.7393 91.3743 94.1064 92.1694 92.4378C93.3644 89.9305 94.535 87.332 96.3683 84.7202C98.2016 82.1061 100.693 79.4654 104.572 76.8758C104.887 76.6644 105.049 76.2818 104.982 75.908C104.916 75.532 104.629 75.2295 104.26 75.1449C97.7333 73.6254 91.0783 72.3262 84.6839 72.3262" fill="#014A15"/>
<path d="M88.3017 95.6856C87.8909 96.3419 87.4469 96.9715 86.9543 97.5722C85.8765 98.887 84.5622 100.068 82.7776 101.116C78.9697 103.345 75.4047 104.122 72.2241 104.124H72.2197C68.2793 104.124 64.9198 102.912 62.5453 101.69C61.3592 101.081 60.4205 100.471 59.7844 100.017C59.6695 99.9349 59.5657 99.8592 59.4707 99.788C59.1085 100.34 58.7684 100.88 58.4481 101.408C59.1461 101.919 60.246 102.656 61.6817 103.394C64.2461 104.709 67.8927 106.035 72.2241 106.035H72.2352C75.1331 106.035 78.3313 105.432 81.6732 103.857C85.0305 101.632 86.7511 98.8158 88.3017 95.6812M68.4803 78.5173C67.8088 78.8355 67.1462 79.1847 66.4946 79.5652C63.0754 81.5697 60.6966 83.9902 59.0489 86.5019C59.0246 86.5553 59.0003 86.6087 58.9782 86.6621C57.3503 90.3485 56.9749 93.917 56.9749 96.4598C56.9749 98.0305 57.1184 99.2118 57.209 99.7969C57.7236 98.9738 58.2824 98.1262 58.8898 97.2607C58.881 97.0093 58.8766 96.7401 58.8766 96.4598C58.8766 94.1061 59.23 90.8023 60.7165 87.4407C62.1058 84.3083 64.4537 81.118 68.4825 78.5173M99.8049 78.1035C98.0578 79.6208 96.6574 81.1559 95.4978 82.6843C94.0202 84.6331 92.9312 86.5597 92.0036 88.4063C93.9804 85.1337 96.7723 81.7588 101.627 78.5218C101.02 78.3816 100.415 78.2414 99.8049 78.1057" fill="#004617"/>
<path d="M55.7514 102.264C55.1418 103.358 54.6227 104.375 54.1876 105.287C53.8099 106.079 53.4941 106.789 53.2378 107.398C52.6216 108.86 52.3411 109.743 52.3322 109.765C52.2704 109.959 52.2726 110.157 52.3278 110.337C52.33 110.346 52.3345 110.355 52.3367 110.364C52.3367 110.366 52.3367 110.371 52.3389 110.373C52.3389 110.373 52.3389 110.375 52.3389 110.377C52.3389 110.377 52.3389 110.382 52.3389 110.384C52.3389 110.384 52.3389 110.384 52.3389 110.386C52.3389 110.386 52.3389 110.386 52.3389 110.388C52.3389 110.388 52.3389 110.388 52.3389 110.391C52.3389 110.393 52.3411 110.397 52.3411 110.4C52.3411 110.4 52.3433 110.406 52.3455 110.408C52.3897 110.522 52.4559 110.626 52.5399 110.715C52.5399 110.718 52.5443 110.72 52.5465 110.722C52.5509 110.727 52.5531 110.729 52.5575 110.733C52.6194 110.796 52.6923 110.849 52.7718 110.893C52.8115 110.916 52.8535 110.933 52.8977 110.951C52.8977 110.951 52.8977 110.951 52.8999 110.951C52.9043 110.951 52.9087 110.956 52.9131 110.956C52.9154 110.956 52.9198 110.956 52.922 110.958C52.922 110.958 52.9242 110.958 52.9264 110.958C52.9286 110.958 52.933 110.96 52.9374 110.962C53.0214 110.989 53.1075 111.005 53.1915 111.007C53.1915 111.007 53.2025 111.007 53.2091 111.007H53.2445C53.2445 111.007 53.2555 111.007 53.2599 111.007C53.2754 111.007 53.2886 111.007 53.3041 111.005C53.3085 111.005 53.3129 111.005 53.3196 111.005C53.3969 110.996 53.4742 110.98 53.5471 110.954C53.5471 110.954 53.5493 110.954 53.5515 110.954C53.5515 110.954 53.5559 110.953 53.5581 110.951C53.5625 110.951 53.5669 110.949 53.5714 110.947C53.6862 110.902 53.79 110.836 53.8806 110.749C53.8828 110.747 53.885 110.744 53.8894 110.742C53.9711 110.662 54.0418 110.564 54.0904 110.453C54.0904 110.451 54.0926 110.448 54.0948 110.444C54.0948 110.444 54.0948 110.44 54.097 110.44C54.0993 110.435 54.1015 110.428 54.1037 110.424C54.1125 110.4 54.1213 110.375 54.1302 110.351C54.1302 110.351 54.1302 110.346 54.1302 110.344C54.1302 110.344 54.1302 110.339 54.1302 110.337C54.1986 110.124 55.1219 107.349 57.2092 103.532C56.2771 102.9 55.7669 102.451 55.7669 102.451C55.7669 102.451 55.7536 102.386 55.7337 102.264" fill="#014A15"/>
<path d="M84.9974 78.5374C84.9157 78.5374 84.8318 78.5485 84.7478 78.5708C78.5832 80.2571 73.4655 83.0558 69.2688 86.2973C64.8425 89.7167 61.441 93.6278 58.8877 97.2586C58.2803 98.124 57.7192 98.9716 57.2068 99.7948C56.8092 100.431 56.4404 101.05 56.0958 101.65C55.9787 101.857 55.8617 102.062 55.749 102.262C55.7689 102.384 55.7822 102.449 55.7822 102.449C55.7822 102.449 56.2902 102.898 57.2245 103.53C57.5955 102.854 58.002 102.144 58.4459 101.41C58.7662 100.88 59.1063 100.34 59.4686 99.7903C59.9258 99.0917 60.4183 98.3798 60.944 97.659C63.3648 94.333 66.5145 90.8202 70.5212 87.7433C74.5279 84.6665 79.385 82.0213 85.247 80.4173C85.7528 80.2793 86.0532 79.7521 85.914 79.2426C85.7992 78.8155 85.4149 78.5352 84.9974 78.5352" fill="#004617"/>
</g>
<defs>
<clipPath id="clip0_54719_1182">
<rect width="105" height="112" fill="white" transform="translate(0 0.5)"/>
</clipPath>
</defs>
</svg>
